# xmcd CD database file
#
# Track frame offsets:
#	150
#	39010
#	84713
#	114322
#	161477
#
# Disc length: 2669 seconds
#
# Revision: 0
# Processed by: cddbd v1.5.2PL0 Copyright (c) Steve Scherf et al.
# Submitted via: CDex 1.70beta2
#
DISCID=2d0a6b05
DTITLE=Los Wawancó - Homenaje a los Wawancó de fiesta
DYEAR=1999
DGENRE=Salsa
TTITLE0=Lucerito - El Pescador - La Cosecha de Mujeres - La Pollera Colorada - No te Vayas Corazón
TTITLE1=Villa Cariño - La Casita Blanca - Atrévete a Mirarme de Frente - La Piragua - La Burrita
TTITLE2=La Banda está Borracha - Se va el Caimán - Quiero un Sombrero - Quítate el Zapato
TTITLE3=La Navidad de los Pobres - Año Nuevo de Esperanza - Amor y Paz - Nochebuena en mi Pueblito - Anunciando la Navidad
TTITLE4=Muñeca Barranquillera - El Hijo de María Dolores - Yo No Sé Decir Adiós - Mi Sombrero Blanco - El Conductor - Roberto Ruiz - Por la Calle Real
EXTD=YEAR: 1999
EXTT0=
EXTT1=
EXTT2=
EXTT3=
EXTT4=
PLAYORDER=
